<?xml version="1.0" encoding="utf-8"?>
<!-- Generator: Adobe Illustrator 16.0.0, SVG Export Plug-In . SVG Version: 6.00 Build 0)  -->
<!DOCTYPE svg PUBLIC "-//W3C//DTD SVG 1.1//EN" "http://www.w3.org/Graphics/SVG/1.1/DTD/svg11.dtd">
<svg version="1.1" id="Layer_1" xmlns="http://www.w3.org/2000/svg" xmlns:xlink="http://www.w3.org/1999/xlink" x="0px" y="0px"
	 width="80px" height="80px" viewBox="0 0 80 80" enable-background="new 0 0 80 80" xml:space="preserve">
<image overflow="visible" width="1366" height="768" xlink:href="FB7D4CB9.jpg"  transform="matrix(0.785 0 0 0.785 423.9155 -375.1929)">
</image>
<g>
	<path fill="#1E272E" d="M-357.608-168.424c0.005-0.571-0.018-1.215-0.142-1.736c-1.052-7.61-5.745-14.034-14.521-19.733
		c-8.052-4.874-17.324-7.531-26.738-7.536c-2.25,0.045-4.359,0.898-5.733,2.465c-1.334,1.425-1.912,3.393-1.742,5.417
		c5.354,48.87,5.271,109.545-0.09,158.285c-0.204,2.147,0.362,3.979,1.775,5.483c1.289,1.562,3.404,2.386,5.745,2.42l0,0
		c9.431-0.022,18.784-2.725,26.87-7.688c8.662-5.52,13.354-11.954,14.373-19.575c0.181-0.407,0.18-1.268,0.169-1.663
		C-360.396-89.203-360.402-131.536-357.608-168.424z"/>
	<path fill="#1E272E" d="M-447.206-180.965c-4.784-10.438-14.22-16.471-25.732-16.448c-6.967-0.022-13.282,4.065-19.066,12.281
		c-3.302,4.863-6.445,11.308-9.505,19.4c-0.079,0.305-0.231,0.537-0.367,0.854c-0.09,0.271-0.096,0.446-0.209,0.65
		c-0.43,1.719-0.209,3.591,0.436,5.728c1.843,5.236,6.592,9.194,11.161,9.239c1.385-0.039,2.511-0.317,3.659-0.978
		c0.243-0.187,0.638-0.423,0.887-0.537l0.26-0.261c0.046-0.045,0.057-0.102,0.091-0.135c0.876-0.526,1.544-1.035,2.148-1.29
		c6.791,27.666,6.875,56.791-0.051,84.4c-0.588-0.361-1.318-0.819-2.171-1.402c-0.057-0.146-0.199-0.175-0.289-0.265
		c-0.289-0.289-0.6-0.532-0.978-0.685c-1.075-0.622-2.211-0.899-3.517-0.939c-4.631,0.029-9.346,3.952-11.196,9.251
		c-0.65,2.019-0.842,3.952-0.412,5.535c0.073,0.413,0.169,0.69,0.276,0.956c0.136,0.136,0.209,0.276,0.209,0.276
		c3.155,8.674,6.214,14.967,9.618,19.931c5.666,8.108,12.066,12.066,19.06,12.186c0,0,0,0,0.045-0.045
		c11.575-0.097,20.712-5.818,25.541-16.188c3.189-6.287,7.644-18.116,9.821-38.148c2.216-21.464,2.239-44.035-0.05-65.346
		C-439.177-158.699-442.637-172.247-447.206-180.965z"/>
	<path fill="#1E272E" d="M-316.888-181.034c4.795-10.449,14.176-16.493,25.789-16.527c6.91,0.011,13.327,4.111,19.101,12.27
		c3.24,4.903,6.411,11.274,9.369,19.354c0.182,0.363,0.361,0.566,0.412,0.944c0.103,0.215,0.17,0.418,0.237,0.622
		c0.402,1.68,0.334,3.693-0.514,5.695c-1.702,5.343-6.521,9.255-11.105,9.227c-1.34,0.028-2.516-0.243-3.709-0.859
		c-0.261-0.192-0.707-0.469-0.854-0.594l-0.317-0.271c0,0-0.078-0.057-0.091-0.091c-0.854-0.503-1.475-1.012-2.113-1.323
		c-6.882,27.688-6.966,56.813-0.017,84.469c0.598-0.374,1.328-0.831,2.035-1.493c0.102-0.102,0.248-0.158,0.355-0.266
		c0.267-0.266,0.543-0.498,1.059-0.604c1.084-0.635,2.198-0.934,3.505-0.973c4.573-0.052,9.301,3.952,11.116,9.194
		c0.639,2.029,0.865,3.93,0.47,5.546c-0.052,0.458-0.171,0.712-0.334,0.922c-0.045,0.181-0.113,0.384-0.176,0.378
		c-3.178,8.583-6.288,14.95-9.618,19.953c-5.688,8.063-12.077,12.078-19.105,12.096l0,0c-11.631-0.108-20.71-5.772-25.482-16.132
		c-3.337-6.322-7.668-18.116-9.811-38.137c-2.233-21.447-2.228-44.047,0.027-65.347C-324.9-158.784-321.473-172.354-316.888-181.034
		z"/>
</g>
<g>
	<g>
		<path fill="#1E272E" d="M382.879-132.095c0-0.184-0.005-0.387-0.043-0.555c-0.344-2.431-1.838-4.479-4.644-6.303
			c-2.57-1.551-5.528-2.405-8.54-2.405c-0.716,0.012-1.391,0.286-1.828,0.787c-0.425,0.456-0.61,1.083-0.555,1.728
			c1.707,15.611,1.68,34.992-0.031,50.551c-0.064,0.686,0.116,1.273,0.565,1.756c0.415,0.496,1.09,0.766,1.835,0.773l0,0
			c3.01-0.008,6.002-0.879,8.582-2.453c2.771-1.764,4.27-3.82,4.593-6.258c0.061-0.131,0.061-0.4,0.055-0.533
			C381.994-106.786,381.987-120.316,382.879-132.095z"/>
		<path fill="#1E272E" d="M369.629-84.23h-0.009c-1.193-0.014-2.27-0.482-2.963-1.291c-0.725-0.789-1.051-1.793-0.947-2.916
			c1.715-15.559,1.725-34.798,0.036-50.24l-0.002-0.033c-0.095-1.085,0.249-2.136,0.94-2.888c0.71-0.803,1.781-1.273,2.942-1.295
			c3.291,0.004,6.517,0.911,9.357,2.627l0.041,0.026c3.159,2.054,4.902,4.45,5.319,7.327c0.061,0.296,0.067,0.589,0.067,0.818
			l-0.002,0.115c-0.884,11.654-0.887,25.088-0.012,36.859l0.003,0.061c0.015,0.428-0.029,0.729-0.089,0.938
			c-0.425,2.822-2.196,5.244-5.27,7.199l-0.022,0.014c-2.856,1.744-6.099,2.672-9.378,2.68H369.629z M368.796-138.99
			c1.71,15.644,1.695,35.13-0.034,50.867c-0.031,0.303,0.066,0.436,0.16,0.535l0.06,0.066c0.085,0.1,0.309,0.221,0.666,0.227
			c2.707-0.01,5.392-0.779,7.761-2.223c2.354-1.502,3.623-3.188,3.886-5.158l0.043-0.256c-0.88-11.884-0.878-25.445,0.009-37.22
			c0-0.118-0.005-0.164-0.009-0.175l-0.019-0.108c-0.28-1.992-1.533-3.65-3.941-5.22c-2.357-1.42-5.029-2.17-7.725-2.172
			c-0.269,0.006-0.536,0.106-0.672,0.262l-0.038,0.043C368.833-139.406,368.781-139.211,368.796-138.99z"/>
	</g>
	<g>
		<path fill="#1E272E" d="M409.711-101.088c-1.18-0.082-2.265,1.006-2.265,1.006c-1.097-4.416-1.65-8.951-1.655-13.479
			c0.005-4.527,0.559-9.06,1.655-13.477c0,0,1.085,1.09,2.265,1.002c1.465,0.01,3.001-1.242,3.546-2.948
			c0.265-0.636,0.297-1.28,0.164-1.814c-0.022-0.065-0.042-0.135-0.076-0.2c-0.014-0.123-0.074-0.187-0.131-0.302
			c-0.946-2.58-1.956-4.618-2.992-6.181c-1.846-2.608-3.893-3.916-6.098-3.92c-3.711,0.01-6.705,1.942-8.24,5.277
			c-1.464,2.771-2.561,7.109-3.12,12.155c-0.361,3.4-0.539,6.901-0.539,10.409c0,3.508,0.178,7.009,0.539,10.412
			c0.56,5.045,1.656,9.379,3.12,12.156c1.535,3.338,4.529,5.26,8.24,5.281c2.205-0.014,4.252-1.314,6.098-3.934
			c1.036-1.555,2.046-3.6,2.992-6.18c0.057-0.111,0.117-0.18,0.131-0.299c0.034-0.066,0.054-0.133,0.076-0.199
			c0.133-0.533,0.101-1.182-0.164-1.816C412.712-99.848,411.176-101.094,409.711-101.088z"/>
		<path fill="#1E272E" d="M404.122-84.182h-0.009c-4.309-0.021-7.809-2.256-9.606-6.135c-1.522-2.912-2.685-7.408-3.266-12.662
			c-0.364-3.425-0.549-6.986-0.549-10.582c0-3.599,0.185-7.155,0.548-10.571c0.582-5.268,1.744-9.763,3.267-12.67
			c1.803-3.888,5.307-6.122,9.611-6.132c2.741,0.005,5.214,1.542,7.355,4.566l0.026,0.04c1.126,1.694,2.174,3.847,3.119,6.396
			c0.054,0.099,0.138,0.257,0.195,0.471c0.021,0.057,0.037,0.106,0.051,0.145l0.044,0.148c0.217,0.875,0.142,1.835-0.21,2.714
			c-0.756,2.283-2.821,3.937-4.937,3.951c-0.454,0.026-0.89-0.043-1.284-0.166c-0.762,3.65-1.15,7.377-1.153,11.109
			c0.003,3.729,0.392,7.458,1.153,11.109c0.396-0.123,0.834-0.193,1.289-0.166c2.133,0.033,4.18,1.68,4.932,3.949
			c0.352,0.879,0.427,1.84,0.21,2.715l-0.035,0.125c-0.018,0.051-0.036,0.107-0.061,0.172c-0.059,0.215-0.146,0.375-0.201,0.473
			c-0.949,2.564-1.997,4.715-3.114,6.391l-0.022,0.033c-2.137,3.025-4.606,4.566-7.345,4.578H404.122z M404.118-139.867
			c-3.113,0.007-5.543,1.564-6.843,4.384l-0.034,0.075c-1.361,2.576-2.408,6.696-2.951,11.608c-0.354,3.299-0.53,6.748-0.53,10.239
			s0.177,6.938,0.53,10.25c0.543,4.898,1.59,9.021,2.951,11.6l0.034,0.078c1.294,2.811,3.725,4.367,6.85,4.387
			c1.684-0.01,3.309-1.111,4.834-3.264c0.994-1.498,1.944-3.463,2.817-5.844l0.063-0.148c0.004-0.008,0.005-0.008,0.005-0.014
			l0.009-0.053l0.092-0.188c0.045-0.244,0.008-0.527-0.102-0.791l-0.047-0.129c-0.371-1.158-1.362-1.877-2.067-1.877l-0.127-0.004
			H409.6c-0.366,0-0.907,0.398-1.067,0.557l-1.92,1.928l-0.655-2.641c-1.122-4.525-1.694-9.184-1.699-13.847
			c0.005-4.666,0.577-9.323,1.699-13.844l0.655-2.639l1.92,1.926c0.237,0.229,0.737,0.554,1.042,0.554l0.147-0.004
			c0.713,0,1.715-0.757,2.074-1.884l0.047-0.126c0.109-0.265,0.146-0.548,0.102-0.793l-0.092-0.186l-0.009-0.054
			c-0.001-0.009-0.005-0.016-0.01-0.023l-0.059-0.138c-0.868-2.361-1.814-4.327-2.817-5.842
			C407.426-138.77,405.796-139.865,404.118-139.867z"/>
	</g>
	<g>
		<path fill="#1E272E" d="M340.455-101.088c1.178-0.082,2.26,1.006,2.26,1.006c1.096-4.416,1.653-8.951,1.659-13.479
			c-0.006-4.527-0.563-9.06-1.659-13.477c0,0-1.082,1.09-2.26,1.002c-1.469,0.01-3.007-1.242-3.546-2.948
			c-0.272-0.636-0.296-1.28-0.169-1.814c0.023-0.065,0.047-0.135,0.074-0.2c0.021-0.123,0.08-0.187,0.137-0.302
			c0.941-2.58,1.956-4.618,2.991-6.181c1.842-2.608,3.894-3.916,6.096-3.92c3.709,0.01,6.707,1.942,8.241,5.277
			c1.466,2.771,2.56,7.109,3.121,12.155c0.355,3.4,0.54,6.901,0.54,10.409c0,3.508-0.185,7.009-0.54,10.412
			c-0.562,5.045-1.655,9.379-3.121,12.156c-1.534,3.338-4.532,5.26-8.241,5.281c-2.202-0.014-4.254-1.314-6.096-3.934
			c-1.035-1.555-2.05-3.6-2.991-6.18c-0.057-0.111-0.116-0.18-0.137-0.299c-0.027-0.066-0.051-0.133-0.074-0.199
			c-0.127-0.533-0.104-1.182,0.169-1.816C337.448-99.848,338.986-101.094,340.455-101.088z"/>
		<path fill="#1E272E" d="M346.038-84.182h-0.007c-2.741-0.012-5.212-1.553-7.344-4.578l-0.021-0.033
			c-1.129-1.697-2.176-3.848-3.114-6.395c-0.058-0.1-0.143-0.256-0.203-0.473c-0.016-0.043-0.031-0.084-0.046-0.127l-0.057-0.184
			c-0.207-0.879-0.127-1.836,0.223-2.699c0.75-2.281,2.813-3.934,4.938-3.947c0.449-0.021,0.884,0.043,1.276,0.166
			c0.764-3.662,1.153-7.389,1.158-11.111c-0.005-3.72-0.395-7.448-1.158-11.105c-0.395,0.122-0.835,0.191-1.288,0.165
			c-2.135-0.033-4.178-1.681-4.926-3.951c-0.35-0.861-0.43-1.816-0.223-2.696l0.067-0.211c0.01-0.032,0.023-0.064,0.033-0.096
			c0.062-0.22,0.147-0.382,0.205-0.479c0.93-2.528,1.977-4.677,3.112-6.392l0.025-0.038c2.14-3.026,4.611-4.563,7.346-4.568
			c4.315,0.01,7.815,2.245,9.618,6.129c1.522,2.898,2.684,7.392,3.271,12.666c0.364,3.476,0.549,7.031,0.549,10.578
			c0,3.544-0.185,7.104-0.549,10.57c-0.587,5.279-1.748,9.775-3.271,12.674c-1.797,3.879-5.294,6.113-9.606,6.135H346.038z
			 M341.207-90.51c1.521,2.154,3.146,3.254,4.831,3.264c3.126-0.02,5.557-1.576,6.848-4.387l0.037-0.078
			c1.357-2.566,2.406-6.689,2.953-11.605c0.352-3.354,0.531-6.804,0.531-10.244s-0.18-6.889-0.531-10.25
			c-0.547-4.913-1.596-9.034-2.953-11.597l-0.037-0.076c-1.296-2.82-3.729-4.377-6.851-4.384c-1.674,0.002-3.3,1.097-4.828,3.253
			c-1.014,1.535-1.961,3.499-2.816,5.839l-0.059,0.142c-0.017,0.033-0.032,0.063-0.047,0.092l-0.053,0.128
			c-0.007,0.013-0.01,0.025-0.016,0.036c-0.029,0.172-0.041,0.458,0.103,0.791l0.051,0.14c0.354,1.124,1.355,1.879,2.066,1.879
			l0.13,0.003c0,0,0,0,0.002,0c0.328,0,0.825-0.324,1.066-0.561l1.916-1.863l0.651,2.584c1.125,4.533,1.698,9.191,1.705,13.842
			c-0.007,4.656-0.58,9.311-1.705,13.85l-0.654,2.646L341.625-99c-0.232-0.229-0.732-0.557-1.041-0.557l-0.142,0.004
			c-0.717,0-1.707,0.715-2.073,1.875l-0.05,0.139c-0.143,0.332-0.133,0.619-0.104,0.795c0.006,0.01,0.008,0.021,0.013,0.029
			l0.054,0.129c0.016,0.027,0.027,0.055,0.042,0.084l0.065,0.152C339.253-93.99,340.2-92.027,341.207-90.51z"/>
	</g>
</g>
<path fill="#00478F" d="M133.284-102.981c2.607-1.814,4.06-3.912,4.453-6.466c0.033-0.114,0.074-0.312,0.062-0.704l-0.019-0.532
	l0.12-0.037c-1.056-14.536-0.988-27.023,0.198-37.152c-0.007-0.045-0.047-0.176-0.075-0.259c-0.046-0.142-0.094-0.287-0.134-0.479
	c-0.382-2.646-2.1-4.926-5.274-6.987c-2.782-1.681-5.955-2.56-9.158-2.564c-0.99,0.018-1.895,0.435-2.495,1.115
	c-0.572,0.623-0.857,1.545-0.776,2.472c1.726,15.792,1.713,35.552-0.034,51.416c-0.082,0.885,0.13,1.922,0.799,2.654
	c0.479,0.559,1.27,1.445,2.497,1.445h0.014c3.515,0,6.605-1.424,9.189-3.002L133.284-102.981z"/>
<path fill="#005CB8" d="M165.513-103.782l0.466-1.078c0.969-1.58,1.857-3.523,2.646-5.655l0.082-0.193
	c0.045-0.074,0.078-0.151,0.147-0.372l0.05-0.143c0.184-0.741,0.118-1.579-0.199-2.375c-0.669-2.026-2.506-3.516-4.403-3.545
	l-0.152-0.008c-0.294,0-0.603,0.049-0.914,0.145l-0.731,0.225l-0.159-0.751c-0.787-3.771-1.187-7.629-1.19-11.463
	c0.004-3.834,0.403-7.691,1.19-11.461l0.159-0.756l0.736,0.229c0.301,0.094,0.606,0.144,0.9,0.144l0.193-0.006
	c1.856-0.013,3.695-1.505,4.387-3.586c0.302-0.762,0.367-1.592,0.188-2.312l-0.099-0.308c-0.037-0.147-0.103-0.259-0.182-0.419
	c-0.949-2.562-1.995-4.701-3.115-6.394c-2.045-2.887-4.377-4.347-6.924-4.35c-4.104,0.007-7.442,2.148-9.175,5.883
	c-1.516,2.892-2.67,7.411-3.252,12.682c-0.371,3.459-0.558,7.103-0.558,10.74c0,3.635,0.187,7.327,0.558,10.795
	c0.564,5.11,1.689,9.842,3.264,12.86c1.668,3.592,4.919,6.193,9.165,6.193h0.01C161.303-99.06,163.566-101.022,165.513-103.782z"/>
<path fill="#002952" d="M108.526-105.464c1.513-2.88,2.66-7.78,3.232-12.913c0.365-3.479,0.549-7.094,0.549-10.618
	c0-3.54-0.185-7.136-0.549-10.621c-0.581-5.213-1.729-9.682-3.248-12.575c-1.705-3.673-5.021-5.794-9.095-5.804
	c-2.527,0.005-4.836,1.455-6.877,4.339c-1.121,1.693-2.154,3.818-3.131,6.44c-0.057,0.094-0.103,0.199-0.174,0.43l-0.054,0.164
	c-0.177,0.746-0.109,1.566,0.208,2.349c0.663,2.01,2.485,3.49,4.363,3.521l0.154,0.004c0.295,0,0.599-0.05,0.9-0.143l0.73-0.227
	l0.156,0.749c0.782,3.743,1.182,7.569,1.187,11.373c-0.005,3.802-0.405,7.628-1.187,11.379l-0.156,0.748l-0.729-0.224
	c-0.3-0.095-0.608-0.141-0.919-0.141l-0.161,0.007c-1.849,0.011-3.673,1.497-4.356,3.565c-0.3,0.74-0.368,1.572-0.204,2.272
	l0.108,0.355c0.038,0.136,0.092,0.278,0.189,0.466c0.627,1.705,1.304,3.314,2.016,4.637l1.072,1.962
	c1.927,2.739,4.17,4.688,6.866,4.688h0.009C103.633-99.281,106.858-101.863,108.526-105.464z"/>
<image overflow="visible" width="2000" height="640" xlink:href="FB7D4CBF.jpg"  transform="matrix(0.1219 0 0 0.1219 112.6353 -49.5723)">
</image>
<rect x="2.416" y="-105.418" fill="#002952" width="15" height="15"/>
<linearGradient id="SVGID_1_" gradientUnits="userSpaceOnUse" x1="2.4155" y1="-133.918" x2="17.4155" y2="-133.918">
	<stop  offset="0" style="stop-color:#002952"/>
	<stop  offset="0.4946" style="stop-color:#00478F"/>
	<stop  offset="1" style="stop-color:#005CB8"/>
</linearGradient>
<rect x="2.416" y="-141.418" fill="url(#SVGID_1_)" width="15" height="15"/>
<rect x="2.416" y="-75.418" fill="#00478F" width="15" height="15"/>
<rect x="2.416" y="-45.418" fill="#005CB8" width="15" height="15"/>
<text transform="matrix(1 0 0 1 194.375 -64.375)" font-family="'MyriadPro-Regular'" font-size="12">005CB8</text>
<linearGradient id="SVGID_2_" gradientUnits="userSpaceOnUse" x1="221.3296" y1="-128.7061" x2="296.1663" y2="-128.7061">
	<stop  offset="0" style="stop-color:#002952"/>
	<stop  offset="0.4946" style="stop-color:#00478F"/>
	<stop  offset="1" style="stop-color:#0079B8"/>
</linearGradient>
<path fill="url(#SVGID_2_)" d="M240.511-152.19c-1.705-3.673-5.021-5.794-9.095-5.804c-2.527,0.005-4.836,1.455-6.877,4.339
	c-1.121,1.693-2.154,3.818-3.131,6.44c-0.057,0.094-0.103,0.199-0.174,0.43l-0.054,0.164c-0.177,0.746-0.109,1.566,0.208,2.349
	c0.663,2.01,2.485,3.49,4.363,3.521l0.154,0.004c0.295,0,0.599-0.05,0.9-0.143l0.73-0.227l0.156,0.749
	c0.782,3.743,1.182,7.569,1.187,11.373c-0.005,3.802-0.405,7.628-1.187,11.379l-0.156,0.748l-0.729-0.224
	c-0.3-0.095-0.608-0.141-0.919-0.141l-0.161,0.007c-1.849,0.011-3.673,1.497-4.356,3.565c-0.3,0.74-0.368,1.572-0.204,2.272
	l0.108,0.355c0.038,0.136,0.092,0.278,0.189,0.466c0.627,1.705,1.304,3.314,2.016,4.637l1.072,1.894
	c1.927,2.739,4.17,4.619,6.866,4.619h0.009c4.206,0,7.431-2.514,9.1-6.114c1.513-2.88,2.66-7.746,3.232-12.878
	c0.365-3.479,0.549-7.077,0.549-10.601c0-3.54-0.185-7.127-0.549-10.613C243.177-144.837,242.03-149.297,240.511-152.19z"/>
<linearGradient id="SVGID_3_" gradientUnits="userSpaceOnUse" x1="221.3296" y1="-128.8154" x2="296.1663" y2="-128.8154">
	<stop  offset="0" style="stop-color:#002952"/>
	<stop  offset="0.4946" style="stop-color:#00478F"/>
	<stop  offset="1" style="stop-color:#0079B8"/>
</linearGradient>
<path fill="url(#SVGID_3_)" d="M296.301-117.144l-0.152-0.008c-0.294,0-0.603,0.049-0.914,0.145l-0.731,0.225l-0.159-0.751
	c-0.787-3.771-1.187-7.629-1.19-11.463c0.004-3.834,0.403-7.691,1.19-11.461l0.159-0.756l0.736,0.229
	c0.301,0.094,0.606,0.144,0.9,0.144l0.193-0.006c1.856-0.013,3.695-1.505,4.387-3.586c0.302-0.762,0.367-1.592,0.188-2.312
	l-0.099-0.308c-0.037-0.147-0.103-0.259-0.182-0.419c-0.949-2.562-1.995-4.701-3.115-6.394c-2.045-2.887-4.377-4.347-6.924-4.35
	c-4.104,0.007-7.442,2.148-9.175,5.883c-1.516,2.892-2.67,7.411-3.252,12.682c-0.371,3.459-0.558,7.103-0.558,10.74
	c0,3.635,0.187,7.327,0.558,10.795c0.564,5.11,1.689,9.662,3.264,12.682c1.668,3.592,4.919,6.014,9.165,6.014h0.01
	c2.702,0,4.965-1.783,6.912-4.543l0.466-0.989c0.969-1.58,1.857-3.479,2.646-5.61l0.082-0.171c0.045-0.074,0.078-0.14,0.147-0.36
	l0.05-0.137c0.184-0.741,0.118-1.576-0.199-2.372C300.036-115.627,298.199-117.114,296.301-117.144z"/>
<linearGradient id="SVGID_4_" gradientUnits="userSpaceOnUse" x1="-1300.6694" y1="-128.418" x2="2072.1267" y2="-128.418">
	<stop  offset="0" style="stop-color:#002952"/>
	<stop  offset="0.4946" style="stop-color:#00478F"/>
	<stop  offset="1" style="stop-color:#0079B8"/>
</linearGradient>
<path fill="url(#SVGID_4_)" d="M269.831-111.493c-0.492-5.1-0.74-10.764-0.729-16.925c-0.011-6.161,0.237-11.825,0.729-16.925
	c0.005-0.107,0.015-0.223,0.032-0.353c0.178-1.31,0.123-2.361-0.04-3.234c-0.025-0.132-0.052-0.264-0.084-0.395
	c-0.04-0.167-0.084-0.327-0.132-0.479c-0.046-0.146-0.099-0.292-0.153-0.436c-0.056-0.145-0.11-0.294-0.17-0.425
	c-0.022-0.05-0.052-0.1-0.075-0.15c-0.2-0.409-0.406-0.751-0.591-1.038c-0.886-1.338-2.202-2.582-4.003-3.751
	c-2.782-1.681-5.955-2.565-9.158-2.57c-0.99,0.018-1.895,0.424-2.495,1.104c-0.572,0.623-0.857,1.523-0.776,2.45
	c0.881,8.057,1.306,17.135,1.281,26.202c0.024,9.067-0.4,18.145-1.281,26.201c-0.081,0.928,0.204,1.827,0.776,2.45
	c0.601,0.681,1.505,1.086,2.495,1.104c3.203-0.006,6.376-0.89,9.158-2.57c1.801-1.17,3.117-2.414,4.003-3.752
	c0.185-0.287,0.391-0.629,0.591-1.037c0.023-0.051,0.053-0.1,0.075-0.15c0.06-0.131,0.114-0.28,0.17-0.425
	c0.055-0.144,0.107-0.289,0.153-0.436c0.048-0.151,0.092-0.313,0.132-0.479c0.032-0.131,0.059-0.262,0.084-0.395
	c0.163-0.873,0.218-1.925,0.04-3.234C269.845-111.271,269.835-111.386,269.831-111.493z"/>
<g>
	<circle fill="#00478F" cx="163.25" cy="163.25" r="39.907"/>
	<g>
		<path fill="#FFFFFF" d="M149.031,147.063c-1.185-2.552-3.488-4.024-6.317-4.031c-1.756,0.003-3.359,1.01-4.777,3.014
			c-0.779,1.177-1.496,2.651-2.175,4.473c-0.04,0.065-0.071,0.14-0.121,0.298l-0.037,0.114c-0.124,0.519-0.077,1.089,0.145,1.633
			c0.46,1.396,1.726,2.424,3.03,2.444l0.107,0.003c0.205,0,0.416-0.033,0.625-0.1l0.507-0.157l0.108,0.52
			c0.543,2.603,0.821,5.259,0.824,7.9c-0.003,2.641-0.281,5.299-0.824,7.903l-0.108,0.519l-0.506-0.153
			c-0.209-0.066-0.423-0.099-0.639-0.099l-0.112,0.005c-1.283,0.007-2.551,1.039-3.026,2.477c-0.208,0.514-0.255,1.091-0.141,1.576
			l0.075,0.248c0.026,0.094,0.212,0.591,0.28,0.721c0.436,1.185,0.756,1.905,1.251,2.823l0.744,1.634
			c1.338,1.905,2.897,3.531,4.77,3.531h0.006c2.921,0,5.162-2.066,6.321-4.566c1.051-2.002,1.848-5.542,2.245-9.106
			c0.254-2.417,0.382-4.996,0.382-7.443c0-2.458-0.128-4.99-0.382-7.411C150.882,152.211,150.086,149.071,149.031,147.063z"/>
		<path fill="#FFFFFF" d="M190.888,173.824c-0.475-1.438-1.743-2.47-3.026-2.477l-0.112-0.005c-0.215,0-0.43,0.032-0.638,0.099
			l-0.507,0.153l-0.107-0.519c-0.543-2.604-0.821-5.263-0.824-7.903c0.003-2.642,0.281-5.298,0.824-7.9l0.107-0.52l0.508,0.157
			c0.209,0.066,0.42,0.1,0.625,0.1l0.107-0.003c1.304-0.021,2.569-1.049,3.03-2.444c0.221-0.544,0.268-1.114,0.145-1.633
			l-0.038-0.114c-0.049-0.158-0.081-0.232-0.121-0.298c-0.679-1.821-1.396-3.296-2.174-4.473c-1.418-2.004-3.021-3.011-4.777-3.014
			c-2.83,0.007-5.132,1.479-6.317,4.031c-1.055,2.009-1.852,5.097-2.255,8.718c-0.253,2.419-0.381,4.9-0.381,7.359
			c0,2.447,0.128,4.924,0.381,7.341c0.397,3.564,1.194,7.309,2.245,9.311c1.158,2.5,3.399,4.566,6.321,4.566h0.006
			c1.873,0,3.431-1.626,4.769-3.531l0.745-1.431c0.496-0.916,0.816-1.74,1.251-2.924c0.068-0.131,0.254-0.679,0.28-0.772
			l0.075-0.272C191.143,174.94,191.096,174.338,190.888,173.824z"/>
		<path fill="#FFFFFF" d="M169.417,151.572c0.124-0.908,0.085-1.639-0.027-2.246c-0.018-0.092-0.036-0.184-0.059-0.273
			c-0.027-0.116-0.059-0.228-0.091-0.333c-0.031-0.101-0.068-0.203-0.106-0.303c-0.039-0.099-0.077-0.203-0.118-0.294
			c-0.017-0.036-0.037-0.07-0.053-0.107c-0.14-0.281-0.282-0.52-0.41-0.719c-0.616-0.929-1.529-1.793-2.781-2.606
			c-1.932-1.166-4.135-1.78-6.36-1.784c-0.688,0.012-1.316,0.295-1.733,0.766c-0.398,0.435-0.596,1.059-0.539,1.703
			c0.611,5.597,0.906,11.902,0.89,18.199c0.016,6.296-0.279,12.601-0.89,18.198c-0.057,0.645,0.141,1.269,0.539,1.702
			c0.417,0.473,1.045,0.754,1.733,0.768c2.225-0.006,4.429-0.62,6.36-1.787c1.252-0.812,2.166-1.678,2.781-2.604
			c0.128-0.201,0.271-0.438,0.41-0.721c0.016-0.034,0.036-0.07,0.053-0.105c0.041-0.09,0.079-0.193,0.118-0.294
			c0.038-0.1,0.075-0.202,0.106-0.303c0.033-0.104,0.064-0.219,0.091-0.333c0.023-0.09,0.041-0.181,0.059-0.274
			c0.113-0.605,0.151-1.337,0.027-2.247c-0.013-0.09-0.019-0.171-0.022-0.244c-0.342-3.542-0.514-7.477-0.506-11.755
			c-0.008-4.28,0.164-8.214,0.506-11.756C169.398,151.744,169.405,151.663,169.417,151.572z"/>
	</g>
</g>
<linearGradient id="SVGID_5_" gradientUnits="userSpaceOnUse" x1="-5" y1="160" x2="85" y2="160">
	<stop  offset="0" style="stop-color:#002952"/>
	<stop  offset="0.4946" style="stop-color:#00478F"/>
	<stop  offset="1" style="stop-color:#0079B8"/>
</linearGradient>
<rect y="120" fill="none" stroke="url(#SVGID_5_)" stroke-width="10" stroke-miterlimit="10" width="80" height="80"/>
<g>
	<linearGradient id="SVGID_6_" gradientUnits="userSpaceOnUse" x1="17.082" y1="159.7178" x2="62.7502" y2="159.7178">
		<stop  offset="0" style="stop-color:#002952"/>
		<stop  offset="0.4946" style="stop-color:#00478F"/>
		<stop  offset="1" style="stop-color:#0079B8"/>
	</linearGradient>
	<path fill="url(#SVGID_6_)" d="M25.346,143.006c-1.22-2.628-3.593-4.146-6.507-4.152c-1.809,0.003-3.46,1.04-4.92,3.104
		c-0.802,1.212-1.541,2.731-2.24,4.607c-0.042,0.067-0.074,0.143-0.125,0.307l-0.039,0.118c-0.126,0.533-0.078,1.121,0.149,1.682
		c0.475,1.438,1.778,2.496,3.122,2.518l0.11,0.004c0.211,0,0.428-0.035,0.644-0.104l0.522-0.162l0.111,0.536
		c0.559,2.679,0.846,5.415,0.849,8.138c-0.003,2.72-0.29,5.457-0.849,8.141l-0.111,0.535l-0.522-0.16
		c-0.215-0.067-0.436-0.101-0.658-0.101l-0.115,0.005c-1.322,0.008-2.627,1.07-3.116,2.551c-0.214,0.529-0.263,1.123-0.146,1.625
		l0.077,0.255c0.027,0.097,0.218,0.608,0.289,0.742c0.448,1.221,0.779,1.963,1.29,2.908l0.767,1.265
		c1.378,1.961,2.984,3.215,4.913,3.215h0.006c3.009,0,5.317-1.707,6.511-4.283c1.083-2.061,1.903-5.498,2.312-9.17
		c0.261-2.49,0.393-5.041,0.393-7.563c0-2.532-0.132-5.088-0.393-7.581C27.253,148.256,26.433,145.075,25.346,143.006z"/>
	<linearGradient id="SVGID_7_" gradientUnits="userSpaceOnUse" x1="17.082" y1="159.7178" x2="62.7502" y2="159.7178">
		<stop  offset="0" style="stop-color:#002952"/>
		<stop  offset="0.4946" style="stop-color:#00478F"/>
		<stop  offset="1" style="stop-color:#0079B8"/>
	</linearGradient>
	<path fill="url(#SVGID_7_)" d="M68.462,170.572c-0.489-1.48-1.794-2.543-3.116-2.551l-0.115-0.005
		c-0.222,0-0.443,0.033-0.658,0.101l-0.522,0.16l-0.111-0.535c-0.559-2.684-0.846-5.421-0.849-8.141
		c0.003-2.723,0.29-5.459,0.849-8.138l0.111-0.536l0.522,0.162c0.216,0.068,0.433,0.104,0.644,0.104l0.11-0.004
		c1.344-0.021,2.647-1.08,3.122-2.518c0.227-0.561,0.275-1.148,0.149-1.682l-0.039-0.118c-0.05-0.164-0.083-0.239-0.125-0.307
		c-0.699-1.876-1.438-3.396-2.24-4.607c-1.46-2.064-3.112-3.102-4.92-3.104c-2.914,0.007-5.287,1.524-6.507,4.152
		c-1.087,2.069-1.908,5.25-2.323,8.979c-0.261,2.493-0.393,5.049-0.393,7.581c0,2.521,0.132,5.072,0.393,7.563
		c0.409,3.672,1.229,7.109,2.312,9.17c1.194,2.576,3.501,4.283,6.511,4.283h0.006c1.929,0,3.534-1.254,4.913-3.215l0.767-1.265
		c0.51-0.945,0.841-1.688,1.29-2.908c0.07-0.134,0.261-0.646,0.289-0.742l0.077-0.255C68.725,171.695,68.676,171.102,68.462,170.572
		z"/>
	<linearGradient id="SVGID_8_" gradientUnits="userSpaceOnUse" x1="17.082" y1="160.0137" x2="62.7502" y2="160.0137">
		<stop  offset="0" style="stop-color:#002952"/>
		<stop  offset="0.4946" style="stop-color:#00478F"/>
		<stop  offset="1" style="stop-color:#0079B8"/>
	</linearGradient>
	<path fill="url(#SVGID_8_)" d="M46.346,147.652c0.127-0.937,0.088-1.689-0.028-2.314c-0.018-0.095-0.037-0.188-0.06-0.282
		c-0.029-0.119-0.061-0.234-0.094-0.343c-0.033-0.104-0.071-0.209-0.109-0.312c-0.041-0.103-0.079-0.21-0.122-0.304
		c-0.017-0.036-0.037-0.071-0.054-0.108c-0.144-0.291-0.291-0.536-0.422-0.741c-0.634-0.957-1.576-1.848-2.864-2.685
		c-1.99-1.202-4.261-1.834-6.553-1.839c-0.708,0.013-1.355,0.304-1.785,0.79c-0.409,0.446-0.613,1.089-0.555,1.753
		c0.63,5.766,0.934,12.26,0.917,18.747c0.017,6.486-0.287,12.98-0.917,18.746c-0.058,0.663,0.146,1.307,0.555,1.753
		c0.43,0.486,1.077,0.776,1.785,0.79c2.292-0.005,4.563-0.637,6.553-1.84c1.289-0.836,2.23-1.728,2.864-2.684
		c0.132-0.206,0.279-0.45,0.422-0.742c0.017-0.036,0.038-0.071,0.054-0.108c0.042-0.093,0.081-0.2,0.122-0.304
		c0.039-0.102,0.077-0.206,0.109-0.312c0.034-0.107,0.065-0.224,0.094-0.343c0.023-0.093,0.042-0.187,0.06-0.283
		c0.117-0.623,0.156-1.376,0.028-2.313c-0.013-0.092-0.019-0.176-0.023-0.252c-0.352-3.649-0.529-7.701-0.521-12.108
		c-0.008-4.408,0.169-8.461,0.521-12.11C46.327,147.829,46.333,147.745,46.346,147.652z"/>
</g>
<g>
	<linearGradient id="SVGID_9_" gradientUnits="userSpaceOnUse" x1="17.749" y1="39.3896" x2="61.0825" y2="39.3896">
		<stop  offset="0" style="stop-color:#002952"/>
		<stop  offset="0.4946" style="stop-color:#00478F"/>
		<stop  offset="1" style="stop-color:#0079B8"/>
	</linearGradient>
	<path fill="url(#SVGID_9_)" d="M20.719,17.656c-1.604-3.455-4.723-5.449-8.554-5.459c-2.377,0.004-4.548,1.367-6.468,4.081
		c-1.054,1.594-2.025,3.591-2.944,6.057c-0.055,0.089-0.098,0.188-0.164,0.403l-0.051,0.155c-0.166,0.701-0.103,1.474,0.196,2.211
		c0.624,1.89,2.337,3.281,4.104,3.31l0.145,0.005c0.277,0,0.563-0.046,0.847-0.136l0.687-0.214l0.146,0.705
		c0.735,3.521,1.112,7.118,1.116,10.697c-0.004,3.575-0.381,7.174-1.116,10.701l-0.146,0.703l-0.687-0.21
		c-0.282-0.089-0.572-0.133-0.864-0.133L6.813,50.54c-1.737,0.011-3.454,1.407-4.096,3.354c-0.282,0.695-0.346,1.476-0.192,2.136
		l0.102,0.335c0.036,0.127,0.287,0.8,0.379,0.976c0.589,1.604,1.024,2.58,1.695,3.823l1.008,1.427
		c1.812,2.578,3.922,3.992,6.458,3.992h0.008c3.956,0,6.989-2.01,8.559-5.396c1.423-2.709,2.502-7.109,3.039-11.936
		c0.343-3.274,0.517-6.568,0.517-9.883c0-3.329-0.173-6.659-0.517-9.937C23.226,24.528,22.147,20.376,20.719,17.656z"/>
	<linearGradient id="SVGID_10_" gradientUnits="userSpaceOnUse" x1="17.749" y1="39.3896" x2="61.0825" y2="39.3896">
		<stop  offset="0" style="stop-color:#002952"/>
		<stop  offset="0.4946" style="stop-color:#00478F"/>
		<stop  offset="1" style="stop-color:#0079B8"/>
	</linearGradient>
	<path fill="url(#SVGID_10_)" d="M77.396,53.894c-0.643-1.946-2.359-3.343-4.096-3.354l-0.152-0.007
		c-0.292,0-0.582,0.044-0.864,0.133l-0.687,0.21l-0.146-0.703c-0.735-3.527-1.112-7.126-1.116-10.701
		c0.004-3.579,0.381-7.176,1.116-10.697l0.146-0.705l0.687,0.214c0.284,0.09,0.569,0.136,0.847,0.136l0.145-0.005
		c1.767-0.028,3.479-1.42,4.104-3.31c0.298-0.737,0.362-1.51,0.196-2.211l-0.051-0.155c-0.066-0.216-0.109-0.314-0.164-0.403
		c-0.918-2.466-1.89-4.463-2.944-6.057c-1.92-2.714-4.091-4.077-6.468-4.081c-3.831,0.01-6.95,2.004-8.554,5.459
		c-1.429,2.72-2.507,6.901-3.054,11.804c-0.343,3.277-0.517,6.637-0.517,9.966c0,3.314,0.173,6.667,0.517,9.941
		c0.537,4.826,1.616,9.109,3.039,11.818c1.569,3.387,4.603,5.396,8.559,5.396h0.008c2.536,0,4.646-1.414,6.458-3.992l1.008-1.544
		c0.67-1.243,1.106-2.16,1.695-3.765c0.093-0.176,0.344-0.819,0.379-0.946l0.102-0.32C77.743,55.354,77.678,54.589,77.396,53.894z"
		/>
	<linearGradient id="SVGID_11_" gradientUnits="userSpaceOnUse" x1="17.749" y1="40.0137" x2="61.0825" y2="40.0137">
		<stop  offset="0" style="stop-color:#002952"/>
		<stop  offset="0.4946" style="stop-color:#00478F"/>
		<stop  offset="1" style="stop-color:#0079B8"/>
	</linearGradient>
	<path fill="url(#SVGID_11_)" d="M48.324,23.764c0.167-1.23,0.116-2.221-0.037-3.042c-0.024-0.125-0.049-0.248-0.079-0.371
		c-0.038-0.156-0.08-0.308-0.124-0.45c-0.043-0.138-0.093-0.275-0.144-0.41c-0.053-0.135-0.104-0.275-0.16-0.399
		c-0.022-0.047-0.049-0.093-0.071-0.142c-0.189-0.383-0.382-0.705-0.555-0.975c-0.834-1.258-2.071-2.429-3.765-3.529
		c-2.616-1.58-5.601-2.411-8.614-2.417c-0.931,0.017-1.782,0.399-2.347,1.038c-0.538,0.587-0.806,1.432-0.73,2.305
		c0.828,7.579,1.228,16.116,1.206,24.644c0.022,8.526-0.377,17.063-1.206,24.643c-0.076,0.872,0.192,1.718,0.73,2.305
		c0.564,0.639,1.416,1.021,2.347,1.038c3.013-0.006,5.998-0.837,8.614-2.418c1.694-1.1,2.931-2.271,3.765-3.528
		c0.173-0.271,0.366-0.592,0.555-0.976c0.022-0.048,0.049-0.094,0.071-0.143c0.056-0.122,0.106-0.263,0.16-0.399
		c0.051-0.133,0.101-0.271,0.144-0.409c0.044-0.142,0.086-0.294,0.124-0.45c0.03-0.122,0.055-0.245,0.079-0.373
		c0.153-0.818,0.205-1.809,0.037-3.041c-0.017-0.12-0.025-0.23-0.03-0.331c-0.462-4.797-0.695-10.123-0.685-15.917
		c-0.01-5.795,0.223-11.122,0.685-15.919C48.299,23.996,48.307,23.886,48.324,23.764z"/>
</g>
</svg>
